<svg xmlns="http://www.w3.org/2000/svg" width="1216" height="288" viewBox="0 0 1216 288" fill="none"><path fill-rule="evenodd" clip-rule="evenodd" d="M449.59 106.385C449.517 89.9641 420.551 71.4989 408.177 61.979C383.712 43.1499 358.267 25.7622 333.057 8.0968C307.848 -9.56865 282.57 -27.1862 258.532 -46.5804C242.923 -59.1698 224.583 -73.3491 213.998 -91.3258C191.447 -129.635 262.547 -123.946 280.964 -124.784C327.817 -126.925 381.557 -125.948 425.474 -145.898C451.69 -157.807 462.144 -177.781 456.514 -206.891C454.699 -216.358 449.326 -227.253 453.877 -236.476C458.737 -246.326 469.917 -252.01 479.196 -255.822C513.04 -269.709 551.952 -271.318 587.76 -273.061C626.373 -274.977 665.349 -274.416 703.689 -274.565C719.946 -274.627 736.925 -280.79 752.407 -285.799C772.702 -292.364 792.757 -299.739 812.885 -306.869C857.164 -322.519 902.792 -339.001 949.64 -342.976C978.978 -345.466 1011.04 -342.099 1033.83 -320.44C1045.28 -309.565 1051.27 -293.399 1057.88 -279.037C1065.89 -261.688 1073.58 -244.171 1082.11 -227.095C1109.57 -172.097 1148.78 -118.353 1212.43 -115.652C1222.06 -115.245 1231.51 -116.572 1241.1 -116.821C1247.2 -116.974 1252.63 -115.418 1254.9 -108.68C1260.6 -91.7807 1242.67 -65.103 1235.32 -51.6947C1219.23 -22.3448 1201.08 5.68812 1184.08 34.4489C1172.83 53.4696 1153.36 79.4625 1153.16 102.573C1152.98 123.164 1178.93 138.047 1193.06 148.19C1206.3 157.686 1230.29 170.974 1231.74 190.292C1232.44 199.658 1226.59 207.421 1220.48 213.445C1209.77 223.98 1197.42 231.412 1187.79 243.432C1171.98 263.152 1158.78 290.284 1160.93 316.857C1162.41 335.269 1172.37 347.327 1185.03 358.853C1190.35 363.699 1194.67 367.128 1194.96 374.996C1195.41 387.49 1190.77 400.711 1186.95 412.295C1173.28 453.751 1153.87 493.837 1132.28 531.265C1121.49 549.97 1109.83 568.617 1095.53 584.573C1086.16 595.05 1073.52 607.52 1059.23 607.506C1042.68 607.506 1025.17 601.204 1009.09 596.492C979.046 587.685 949.368 577.505 919.807 567.06C851.444 542.897 783.725 516.776 716.648 488.698C669.401 468.888 621.151 449.048 576.73 422.71C568.067 417.538 559.89 411.508 552.31 404.7C544.211 397.551 534.161 394.352 523.97 391.967C460.72 377.165 391.425 388.529 327.912 395.654C311.791 397.46 295.67 399.275 279.503 400.539C265.605 401.626 248.967 404.743 235.459 400.06C208.843 390.842 232.111 356.866 241.948 343.022C276.581 294.278 321.265 253.038 362.681 210.936C382.373 190.886 402.215 170.888 420.836 149.703C430.533 138.689 449.653 120.779 449.59 106.385Z" stroke="#D0D5DD"></path><path fill-rule="evenodd" clip-rule="evenodd" d="M461.525 103.616C450.909 86.2409 432.284 73.3986 416.824 61.3125C394.576 43.9133 371.628 27.4811 349.026 10.5749C327.654 -5.41223 306.237 -21.5812 286.445 -39.7367C274.377 -50.808 259.234 -64.0476 253.518 -80.4225C241.118 -115.915 307.826 -110.53 324.294 -111.459C365.235 -113.756 411.652 -114.283 449.529 -132.969C473.18 -144.639 482.896 -163.991 477.852 -190.858C476.108 -200.154 472.966 -208.09 476.944 -217.337C481.543 -228.04 492.123 -234.713 501.821 -239.423C532.201 -254.18 568.111 -257.315 601.043 -259.923C635.065 -262.618 670.512 -264.519 703.439 -262.546C716.607 -261.762 731.762 -266.218 744.794 -269.635C764.844 -274.901 784.69 -280.975 804.641 -286.623C845.187 -298.111 886.787 -309.177 928.967 -310.436C959.42 -311.345 991.172 -306.415 1016.51 -287.36C1042.18 -268.037 1053.58 -238.082 1067.81 -209.607C1092.41 -160.377 1125.62 -100.521 1182.51 -90.1201C1191.14 -88.5405 1199.43 -89.3973 1208.05 -89.0095C1212.48 -88.8133 1217.52 -88.1911 1219.77 -83.5816C1225.6 -71.6152 1209.62 -49.7358 1204.24 -40.5695C1189.37 -15.239 1172.66 8.85175 1157.08 33.694C1144.71 53.4195 1129.02 75.3371 1124.24 98.7195C1118.43 127.094 1156.38 147.284 1169.72 167.263C1192.85 201.908 1149.02 221.648 1127.42 238.166C1102.6 257.131 1082.12 291.728 1104.36 321.07C1112.87 332.289 1123.34 338.976 1127.14 353.618C1133.09 376.517 1128.59 402.686 1123.77 425.321C1116.51 459.349 1105.01 493.008 1089.38 523.762C1078.18 545.78 1059.61 580.305 1032.41 577.716C1014.1 575.988 995.48 569.674 977.65 564.093C950.952 555.741 924.591 546.22 898.369 536.331C837.841 513.566 777.98 488.466 719.294 460.857C679.252 442.012 567.558 365.001 559.153 362.253C534.094 354.068 505.603 355.509 479.768 356.778C445.401 358.462 411.207 362.828 377.041 366.872C360.777 368.787 344.431 371.128 328.081 372.071C316.444 372.741 301.161 373.315 290.967 366.178C271.071 352.254 293.238 320.395 302.405 306.916C330.487 265.593 366.012 229.809 399.321 193.221C415.666 175.257 432.261 157.321 447.1 137.917C453.084 130.081 468.085 114.348 461.525 103.616Z" stroke="#D0D5DD"></path><path fill-rule="evenodd" clip-rule="evenodd" d="M476.211 94.7053C447.22 59.9355 407.206 34.076 372.672 5.03736C355.339 -9.54181 337.898 -24.5184 322.948 -41.8841C315.171 -50.9141 305.461 -62.3333 303.963 -74.9207C299.959 -108.594 360.083 -104.041 378.079 -105.319C412.872 -107.799 452.177 -109.681 483.742 -126.865C503.027 -137.369 512.524 -154.611 508.92 -177.272C507.322 -187.326 504.834 -195.868 508.92 -205.741C513.06 -215.743 521.686 -222.8 530.42 -228.091C555.521 -243.307 586.713 -248.171 614.974 -251.796C648.125 -256.017 681.527 -257.665 714.908 -256.727C744.144 -255.918 773.239 -265.02 801.785 -271.019C839.601 -278.962 878.103 -285.9 916.8 -284.851C947.362 -284.018 978.164 -277.473 1004.29 -260.079C1030.84 -242.363 1046.8 -215.848 1061.19 -187.235C1082.95 -143.981 1110.06 -86.019 1157.79 -69.5917C1164.73 -67.1977 1171.2 -66.9344 1178.35 -66.5179C1181.83 -66.3168 1186.32 -66.2545 1188.05 -62.429C1192.2 -53.2171 1176.86 -35.3582 1172.58 -29.1339C1158.91 -9.2641 1144.1 9.71037 1130.09 29.3168C1117.02 47.621 1102.78 66.696 1094.66 88.1459C1081.73 122.308 1123.05 142.283 1121.89 174.836C1121.17 195.045 1102.83 209.538 1088.3 219.564C1070.41 231.893 1044.66 239.999 1035.71 262.497C1029.04 279.255 1039.5 289.008 1047.56 301.725C1061.22 323.27 1062.15 352.477 1060.72 377.417C1058.81 411.119 1051.32 445.319 1038.58 476.297C1032.81 490.34 1025.73 504.947 1015.32 515.854C1005.56 526.076 996.328 528.695 983.29 526.603C943.376 520.187 903.077 502.305 864.802 486.332C816.712 466.261 769.285 444.103 723.274 419.172C691.9 402.17 659.817 384.182 632.279 360.693C625.102 354.569 617.752 347.914 612.504 339.836C608.536 333.765 606.852 328.752 600.165 325.286C580.344 315.016 552.774 317.702 531.537 318.77C497.579 320.469 463.785 324.994 430.037 329.068C410.343 331.462 373.244 338.994 357.518 320.929C343.944 305.33 360.324 278.733 368.691 264.992C389.855 230.241 417.08 199.742 442.34 168.338C453.916 153.946 465.946 139.443 475.507 123.442C477.949 119.363 481.863 113.957 482.535 109.002C483.288 103.324 479.77 98.9904 476.211 94.7053Z" stroke="#D0D5DD"></path><path fill-rule="evenodd" clip-rule="evenodd" d="M478.703 102.8C451.914 72.0568 419.641 46.8003 390.882 18.0315C377.987 5.13257 364.965 -8.39893 355.139 -24.1345C349.854 -32.5965 344.242 -43.2482 345.7 -53.7657C349.881 -83.9527 399.332 -81.2263 419.31 -82.9944C448.995 -85.5914 483.098 -88.2077 509.347 -104.485C526.541 -115.146 532.989 -130.891 529.779 -151.198C526.332 -172.981 534.038 -188.793 551.573 -200.944C573.558 -216.167 601.309 -222.372 626.835 -226.781C657.59 -232.066 688.734 -234.409 719.887 -233.781C750.186 -233.168 779.54 -238.525 809.639 -242.008C849.545 -246.623 890.731 -248.899 930.188 -239.44C964.541 -231.203 995.57 -213.053 1018.83 -184.983C1043.13 -155.688 1055.15 -118.778 1074.88 -86.3677C1087.19 -66.1519 1104.35 -39.4101 1127.34 -31.5519C1135.01 -28.9309 1148.98 -32.4671 1142.86 -19.5729C1139.36 -12.1986 1132.81 -5.72999 1127.63 0.297833C1119.27 10.0391 1110.63 19.5121 1102.12 29.1193C1084 49.5986 1064.58 70.5138 1051 94.7641C1033.88 125.296 1059.33 148.794 1056.23 179.753C1054.56 196.413 1043.58 209.71 1031.97 220.155C1024.45 226.921 1016.23 232.781 1007.83 238.248C999.066 243.96 988.691 248.311 981.045 255.695C970.148 266.203 974.879 278.641 976.922 292.226C980.519 316.098 981.309 340.348 979.274 364.425C976.786 393.937 970.952 424.292 958.661 451.11C953.88 461.551 947.823 472.62 938.828 479.62C929.833 486.621 920.53 486.141 910.223 484.033C879.652 477.804 849.145 463.309 820.145 449.572C783.849 432.375 748.265 413.156 714.284 391.292C690.829 376.198 667.295 359.893 647.672 339.428C641.964 333.472 636.534 327.094 632.143 319.974C629.128 315.091 627.512 308.79 623.144 305.12C609.477 293.663 582.039 297.084 566.011 297.75C534.024 299.078 502.541 305.388 470.594 306.921C453.159 307.76 425.852 309.868 413.048 294.205C401.007 279.48 411.913 256.289 419.11 242.101C433.253 214.204 452.255 189.35 469.286 163.418C476.288 152.747 483.961 141.583 488.497 129.398C492.529 118.54 485.568 110.682 478.703 102.8Z" stroke="#D0D5DD"></path><path fill-rule="evenodd" clip-rule="evenodd" d="M485.292 103.302C463.969 76.2496 438.264 52.235 416.786 24.742C404.215 8.64141 382.565 -18.4258 392.288 -41.1245C402.954 -66.0673 440.133 -66.7467 461.624 -68.7563C487.202 -71.1487 517.24 -74.4166 539.13 -89.9909C546.053 -94.9144 551.951 -101.431 554.451 -110.015C557.128 -119.202 554.201 -127.24 553.82 -136.436C553.022 -155.728 563.937 -171.216 578.382 -181.853C598.798 -196.891 624.327 -204.001 648.44 -208.958C675.758 -214.549 703.53 -217.306 731.359 -217.188C757.953 -217.092 784.267 -217.714 810.889 -218.432C845.704 -219.389 881.009 -217.844 914.781 -208.088C948.049 -198.47 978.296 -180.446 1002.06 -153.934C1025.23 -128.063 1040.87 -96.4408 1054.57 -64.23C1062.34 -45.9476 1075.47 -18.6268 1094.01 -9.39225C1102.25 -5.28217 1110.34 -5.56446 1101.57 5.12461C1090.54 18.584 1075.66 29.3832 1062.88 40.8952C1044.43 57.5078 1025.53 74.4457 1010.05 94.1971C1000.16 106.81 995.758 119.049 996.439 135.379C996.965 147.819 999.352 160.131 998.145 172.619C995.318 201.93 973.437 222.031 954.092 240.748C941.648 252.787 930.283 261.969 923.877 279.093C916.301 299.333 913.121 321.352 908.058 342.366C902.496 365.443 896.071 389.448 883.931 409.774C873.124 427.869 859.981 435.984 840.31 431.109C809.627 423.511 779.385 404.793 752.146 387.477C724.422 369.859 697.174 350.051 674.2 325.835C661.796 312.759 653.33 297.404 642.315 283.356C628.46 265.72 597.115 272.399 578.487 273.892C547.564 276.371 450.263 294.916 459.242 234.849C462.989 209.777 477.747 186.638 488.54 164.513C493.014 155.331 499.488 144.312 500.499 133.791C501.602 122.331 491.702 111.446 485.292 103.302Z" stroke="#D0D5DD"></path><path fill-rule="evenodd" clip-rule="evenodd" d="M496.55 105.6C480.255 81.0842 460.755 57.9237 446.773 31.4456C437.703 14.2978 428.796 -8.61389 440.496 -26.7575C453.703 -47.2324 482.822 -52.0052 504.219 -54.6143C526.264 -57.2999 552.581 -59.5595 570.599 -75.0844C576.331 -80.0296 581.057 -86.6982 581.936 -94.6833C582.785 -102.343 580.39 -110.002 581.184 -117.801C582.961 -135.312 593.025 -149.741 606 -160.206C644.38 -191.165 701.504 -198.049 747.812 -198.858C770.99 -199.26 794.845 -197.149 818.173 -195.636C848.445 -193.673 878.762 -189.461 907.632 -179.307C969.015 -157.726 1010.16 -109.864 1038.89 -50.3058C1047.93 -31.559 1054.85 -11.2756 1069.03 3.78977C1076.33 11.569 1074.74 17.1557 1067.27 24.2504C1055.59 35.3376 1041.34 43.811 1028.38 53.0646C1009.95 66.2247 991.119 79.5811 974.815 95.3454C963.577 106.212 955.6 116.682 953.178 132.978C951.45 144.596 951.854 156.435 950.815 168.125C948.838 190.333 942.067 212.374 930.081 230.795C920.557 245.396 909.22 258.666 897.501 271.319C882.268 287.792 869.383 304.528 857.814 324.079C842.477 349.958 820.926 397.697 784.8 385.063C744.954 371.123 707.608 335.702 682.044 301.382C673.459 289.86 666.411 275.728 654.833 267.23C637.5 254.53 619.913 254.975 599.297 255.028C568.431 255.1 501.266 262.17 500.541 213.379C500.255 194.048 508.182 175.771 511.978 157.177C516.259 136.353 507.679 122.307 496.55 105.6Z" stroke="#D0D5DD"></path><path fill-rule="evenodd" clip-rule="evenodd" d="M508.687 107.785C492.569 75.8338 456.427 23.3308 483.916 -12.199C498.436 -30.9757 524.119 -38.0319 545.663 -42.237C563.001 -45.6383 583.911 -46.9156 597.011 -61.3342C606.639 -71.9352 602.365 -87.3632 606.054 -100.634C610.632 -117.085 621.142 -130.547 634.056 -140.665C670.143 -168.943 720.32 -177.621 763.731 -179.467C808.816 -181.381 858.494 -172.43 900.92 -155.213C953.819 -133.738 993.451 -93.0752 1021.17 -41.5816C1026.28 -32.076 1030.93 -22.3217 1035.84 -12.7013C1039.13 -6.24789 1044.03 -0.00493493 1046.63 6.78338C1050.96 18.102 1045.86 27.354 1037.68 34.7308C1025.92 45.351 1011.47 52.9095 998.061 60.8794C979.724 71.7866 960.98 82.4977 943.923 95.2946C932.461 103.906 920.463 113.181 916.361 128.122C913.562 138.311 912.981 149.104 913.081 159.657C913.299 182.285 912.173 200.583 902.163 221.307C885.692 255.329 860.363 285.922 833.605 311.377C812.605 331.355 779.376 362.388 748.779 349.031C721.327 337.071 705.268 308.445 687.182 285.3C678.388 274.049 668.509 263.773 656.902 255.77C642.269 245.68 628.492 241.447 611.154 239.796C581.973 237.017 537.972 236.294 528.951 199.363C525.621 185.734 527.522 171.616 525.775 157.81C523.493 139.555 516.818 123.902 508.687 107.785Z" stroke="#D0D5DD"></path><path fill-rule="evenodd" clip-rule="evenodd" d="M525.446 108.968C513.969 74.0074 498.891 29.9468 526.611 -1.12546C540.038 -16.1779 558.925 -24.5925 577.204 -30.8807C590.296 -35.3874 611.082 -36.7139 619.109 -50.5691C625.004 -60.7653 625.82 -74.8311 631.153 -85.7553C638.481 -100.774 649.581 -113.145 662.605 -122.828C696.533 -148.063 740.723 -157.813 781.022 -160.606C868.586 -166.664 957.682 -118.413 1004.54 -39.0271C1018.51 -15.3637 1036.54 9.82261 1013.97 33.9985C989.316 60.3725 952.182 72.7287 922.761 91.4688C911.52 98.6238 897.195 107.225 890.923 120.18C887.151 127.967 886.892 137.737 886.72 146.31C886.266 168.144 884.548 187.779 876.227 208.153C863.376 239.637 842.884 268.683 819.662 292.476C799.41 313.223 770.529 337.604 741.117 322.648C718.567 311.154 704.265 286.758 686.743 268.774C667.244 248.746 643.129 235.25 616.646 228.655C590.885 222.257 562.63 217.942 549.053 190.758C544.396 181.434 539.53 169.36 537.785 159.039C534.966 142.023 530.84 125.277 525.446 108.968Z" stroke="#D0D5DD"></path><path fill-rule="evenodd" clip-rule="evenodd" d="M544.133 109.215C538.823 73.9116 538.233 37.1001 562.903 9.27593C574.416 -3.70482 588.97 -12.9269 603.687 -21.2823C614.515 -27.4303 625.697 -32.6159 633.784 -42.695C641.277 -52.0272 646.972 -62.8628 654.206 -72.4392C663.748 -85.1299 675.166 -96.1159 688.02 -104.975C720.241 -127.139 759.437 -137.506 796.936 -141.102C815.089 -142.849 834.78 -143.759 852.81 -138.995C870.223 -134.398 887.44 -127.13 903.451 -118.655C937.487 -100.656 966.985 -74.297 988.369 -40.9713C1003.03 -18.1125 1010.96 4.11427 991.972 27.3034C970.566 53.4421 937.002 67.8641 909.337 84.8286C890.363 96.4639 869.097 107.869 865.553 132.596C862.73 152.27 860.438 170.944 853.136 189.541C842.269 216.973 826.29 241.822 806.148 262.614C787.728 281.556 764.424 297.63 738.076 287.512C717.2 279.483 701.004 261.493 682.765 248.632C662.438 234.268 640.106 226.348 616.589 219.98C595.455 214.234 575.555 205.405 561.895 186.659C559.1 182.828 556.164 178.658 554.008 174.372C551.258 168.904 551.471 163.484 550.931 157.355C549.524 141.181 546.534 125.193 544.133 109.215Z" stroke="#D0D5DD"></path><path fill-rule="evenodd" clip-rule="evenodd" d="M564.737 106.329C565.191 72.7964 572.834 41.1051 593.768 14.9723C602.718 3.79309 613.405 -5.41501 623.252 -15.659C631.181 -23.9175 638.675 -31.591 647.792 -38.3963C669.42 -54.5105 686.997 -75.3631 709.982 -89.7124C740.663 -108.896 775.809 -119.5 810.682 -123.739C827.71 -125.811 845.301 -126.535 862.529 -124.195C877.325 -122.185 891.496 -115.131 904.642 -107.913C930.406 -93.7745 955.423 -73.6797 972.152 -48.2567C1009.03 7.79286 936.317 48.5435 898.994 72.4079C881.83 83.3857 855.602 96.0996 848.571 117.844C843.545 133.378 840.484 149.176 834.011 164.23C816.624 204.659 781.329 252.211 734.295 245.88C714.168 243.175 695.825 232.188 677.036 224.812C657.69 217.215 637.722 212.98 617.614 208.333C598.821 203.993 583.843 197.816 571.705 181.255C565.903 173.347 566.416 163.88 565.898 154.178C565.055 138.241 564.533 122.213 564.737 106.329Z" stroke="#D0D5DD"></path><path fill-rule="evenodd" clip-rule="evenodd" d="M583.499 102.034C591.056 51.4193 619.12 -3.83771 660.384 -33.2322C708.924 -67.8097 761.51 -96.9267 819.504 -105.297C846.392 -109.178 875.845 -111.088 901.216 -98.3959C920.525 -88.7429 942.954 -74.3137 953.58 -54.0218C979.578 -4.3881 921.751 35.1236 888.806 58.086C871.068 70.4478 848.49 82.4936 835.121 100.546C827.365 111.012 823.405 124.858 817.143 136.353C798.166 171.189 766.927 199.287 728.015 204.312C710.023 206.633 691.9 203.761 674.044 201.479C655.766 199.143 637.261 197.875 619.097 194.616C604.597 192.012 587.509 187.605 582.169 171.232C575.434 150.601 580.416 122.704 583.499 102.034Z" stroke="#D0D5DD"></path><path fill-rule="evenodd" clip-rule="evenodd" d="M601.897 93.9032C612.918 46.3168 636.254 -0.100991 675.485 -28.5092C696.289 -43.573 720.439 -53.9717 743.626 -64.2458C769.909 -75.8897 797.369 -84.928 825.415 -89.4113C860.336 -94.9961 916.893 -100.03 935.137 -58.0478C953.245 -16.3767 907.486 20.5047 880.426 41.5222C863.077 54.9863 844.51 67.3439 827.934 82.0629C818.946 90.0427 812.022 99.263 804.415 108.622C783.393 134.554 753.423 155.083 722.876 166.042C693.27 176.666 656.645 181.369 625.393 177.859C611.909 176.35 602.27 171.258 598.192 156.784C592.541 136.662 597.342 113.561 601.897 93.9032Z" stroke="#D0D5DD"></path><path fill-rule="evenodd" clip-rule="evenodd" d="M620.179 81.0865C631.127 39.1884 654.741 0.920164 689.185 -24.2263C727.795 -52.416 777.511 -68.0801 823.207 -76.0457C847.496 -80.2765 900.132 -91.7479 912.512 -58.9172C924.893 -26.0866 889.103 6.26712 868.503 24.0776C843.502 45.6611 816.547 66.5004 789.624 85.8659C766.232 102.703 741.272 119.918 715.936 132.92C701.646 140.296 686.76 146.319 671.455 150.917C660.122 154.294 645.711 159.331 633.829 156.817C603.859 150.468 614.943 101.12 620.179 81.0865Z" stroke="#D0D5DD"></path><path fill-rule="evenodd" clip-rule="evenodd" d="M642.745 68.5402C666.766 -10.6941 742.872 -49.663 816.149 -63.2458C833.177 -66.3988 880.91 -77.7664 890.428 -53.5622C899.651 -30.0948 870.319 -2.26401 856.586 10.9218C814.033 51.7804 761.459 82.0752 711.64 112.088C696.09 121.456 668.044 141.784 648.755 132.407C627.812 122.207 637.769 84.9697 642.745 68.5402Z" stroke="#D0D5DD"></path><path fill-rule="evenodd" clip-rule="evenodd" d="M667.35 53.2897C688.24 -5.0605 749 -38.5265 804.862 -49.559C818.545 -52.2585 853.294 -60.6633 863.658 -44.3802C873.248 -29.3176 850.362 -7.49195 841.799 1.18088C822.737 20.4937 800.147 36.4035 777.829 51.6958C757.194 65.8442 736.336 80.3468 714.623 92.3126C703.187 98.6114 681.738 112.051 668.742 102.326C654.75 91.8627 662.712 66.2463 667.35 53.2897Z" stroke="#D0D5DD"></path><path fill-rule="evenodd" clip-rule="evenodd" d="M694.464 36.2419C710.386 -1.86317 753.029 -26.6073 790.645 -34.8297C800.767 -37.0374 822.643 -42.7649 831.182 -32.5885C839.043 -23.2167 826.374 -9.47748 820.751 -3.13223C795.831 24.9928 759.338 50.1152 725.903 65.5449C717.496 69.4239 702.384 77.0382 693.736 69.2084C684.865 61.1679 690.807 44.9911 694.464 36.2419Z" stroke="#D0D5DD"></path><path fill-rule="evenodd" clip-rule="evenodd" d="M723.227 20.2353C732.199 1.31389 755.648 -12.9618 775.072 -17.506C788.742 -20.7015 805.174 -17.9411 793.26 -1.47067C781.425 14.8741 759.466 29.8024 740.853 36.4206C726.653 41.4676 715.523 36.4882 723.227 20.2353Z" stroke="#D0D5DD"></path><path fill-rule="evenodd" clip-rule="evenodd" d="M-4.32109 151.288C-4.89652 113.906 -23.7224 75.0553 -14.425 36.9653C-6.79046 5.68209 31.645 3.07033 54.7027 -11.1028C73.0256 -22.3628 83.424 -42.3095 93.333 -61.4477C102.236 -78.6296 110.233 -96.328 119.612 -113.228C125.684 -124.153 136.109 -145.606 149.276 -145.994C161.881 -146.367 173.439 -129.649 180.761 -119.766C190.308 -106.885 198.771 -93.1519 208.041 -80.0646C223.664 -57.9893 242.408 -41.6493 263.871 -26.1847C288.296 -8.58828 313.123 8.40699 338.354 24.8012C356.931 36.9079 375.634 48.9237 393.491 62.2262C404.691 70.5732 429.411 86.234 429.525 101.622C429.579 108.965 422.987 117.096 418.542 122.965C411.021 132.9 402.448 141.984 393.849 150.872C377.832 167.427 361.136 183.231 344.62 199.227C323.185 219.986 302.71 240.407 283.866 263.974C264.383 288.37 245.77 313.568 226.777 338.423C213.914 355.26 201.064 374.169 182.51 384.501C159.271 397.416 140.196 383.798 116.694 383.64C96.4775 383.501 97.9682 334.06 95.3991 320.313C92.8211 306.398 87.1393 293.445 84.9373 279.496C82.1916 262.085 82.1553 244.272 81.4802 226.674C80.6602 205.148 80.3339 184.657 58.5358 176.448C46.1303 171.785 32.7098 170.804 19.8693 168.01C11.5506 166.198 -4.13986 163.098 -4.32109 151.288Z" stroke="#D0D5DD"></path><path fill-rule="evenodd" clip-rule="evenodd" d="M5.61775 144.638C3.49862 113.303 -9.02103 73.1956 2.81796 40.8495C12.9326 13.2077 44.5653 9.62432 65.8655 -4.896C83.4493 -16.8725 91.2769 -36.4709 100.067 -55.7243C107.118 -71.1692 113.957 -86.7627 121.961 -101.714C127.86 -112.733 136.868 -131.334 149.133 -133.615C160.16 -135.665 171.985 -119.243 178.175 -110.888C187.205 -98.6913 194.928 -85.4452 202.906 -72.4771C216.923 -49.6978 231.276 -29.2131 251.791 -12.4795C272.397 4.3259 294.94 16.8917 317.724 29.97C335.549 40.2028 353.282 50.7325 370.217 62.5461C382.832 71.3417 400.969 82.5996 406.741 98.284C411.311 110.692 388.137 131.282 381.303 138.549C367.236 153.491 352.329 167.518 337.396 181.458C319.19 198.446 300.404 213.302 284.326 232.68C255.571 267.325 231.534 310.469 194.533 336.219C172.217 351.75 147.382 355.721 122.56 353.398C112.731 352.478 110.372 337.833 109.133 329.292C107.073 315.102 106.814 300.668 105.23 286.421C103.747 273.084 100.452 260.412 97.7976 247.334C95.1113 234.083 94.358 220.507 92.3796 207.165C91.1544 198.882 89.9428 189.243 84.5837 182.584C79.0386 175.691 69.8905 172.802 61.8949 170.608C46.8795 166.526 7.11521 166.751 5.61775 144.638Z" stroke="#D0D5DD"></path><path fill-rule="evenodd" clip-rule="evenodd" d="M18.4097 131.52C14.8458 102.757 9.85632 66.9317 24.3753 40.4312C36.2429 18.7629 61.5535 14.0886 79.6318 -0.0300232C94.6684 -11.7708 100.348 -30.4441 107.812 -47.7969C113.936 -62.0304 120.092 -76.326 127.515 -89.8705C133.145 -100.142 140.4 -114.07 151.577 -117.653C161.134 -120.715 171.93 -106.998 177.229 -100.171C186.25 -88.5356 193.604 -75.4983 200.909 -62.6332C212.859 -41.5821 223.855 -19.0957 240.861 -1.97248C257.387 14.6436 277.018 24.4515 297.017 35.4794C312.335 43.9286 327.558 52.7031 341.99 62.7789C353.072 70.5104 366.806 79.6724 372.581 92.5375C377.575 103.632 364.754 116.765 358.348 124.593C347.77 137.51 336.029 149.361 324.452 161.26C311.958 174.096 298.12 185.938 286.03 199.09C260.606 226.767 240.294 257.411 208.959 278.615C188.665 292.351 161.357 304.829 137.367 302.585C120.115 300.968 121.25 260.674 119.593 247.799C116.869 226.748 111.607 204.63 103.249 185.239C96.0712 168.623 79.0144 163.499 63.3241 159.772C53.495 157.432 43.1937 156.169 33.6869 152.552C22.6819 148.361 19.9034 143.577 18.4097 131.52Z" stroke="#D0D5DD"></path><path fill-rule="evenodd" clip-rule="evenodd" d="M30.3419 118.038C28.2199 93.7199 28.697 64.9633 42.4422 43.9273C54.488 25.5016 75.935 20.6504 91.1888 6.13539C103.094 -5.18874 107.769 -23.6528 114.172 -38.6285C121.996 -56.939 132.961 -90.7579 152.699 -97.6483C171.061 -104.054 190.263 -63.1337 196.911 -50.9315C207.435 -31.6181 216.236 -10.4381 229 7.39736C239.991 22.7521 254.718 31.2404 270.349 40.3621C290.278 52.0125 320.536 65.827 331.191 88.5328C339.134 105.452 313.307 130.605 304.487 142.327C295.263 154.573 288.315 169.088 278.796 180.901C263.774 199.543 239.432 214.552 219.335 226.006C199.796 237.148 174.423 249.479 152.258 248.745C137.691 248.265 134.919 224.523 131.811 212.926C127.358 196.438 121.437 181.664 108.719 170.45C95.7735 159.035 80.5152 153.656 64.4754 148.949C56.2419 146.55 46.8497 144.678 39.4841 139.832C31.3461 134.559 31.1597 127.385 30.3419 118.038Z" stroke="#D0D5DD"></path><path fill-rule="evenodd" clip-rule="evenodd" d="M44.8801 104.021C44.9979 83.0121 49.5496 60.6088 63.0465 44.4032C74.2878 30.9049 91.8835 26.3927 102.645 12.5936C111.169 1.66893 115.507 -13.6677 121.214 -26.3543C128.194 -41.901 138.063 -69.0599 155.418 -74.4554C172.357 -79.7077 187.34 -49.7937 193.834 -37.957C203.345 -20.6006 211.045 -2.20344 220.642 15.1051C228.161 28.6846 237.355 37.4368 249.597 46.189C263.968 56.4691 284.018 67.8569 291.695 84.8647C297.23 97.1788 283.833 116.856 278.968 127.704C275.707 134.99 272.723 142.391 271.083 150.289C269.806 156.439 269.679 162.13 265.979 167.411C256.662 180.695 236.236 182.428 222.377 186.806C203.971 192.617 184.441 199.221 165.178 200.481C153.339 201.269 147.297 189.757 140.54 181.659C132.555 172.086 121.25 165.2 111.377 157.976C98.3465 148.427 84.1658 142.487 69.4959 136.404C62.8789 133.658 55.1069 130.965 49.9799 125.508C44.6265 119.849 44.8393 111.603 44.8801 104.021Z" stroke="#D0D5DD"></path><path fill-rule="evenodd" clip-rule="evenodd" d="M60.1496 91.549C62.489 73.9042 69.7793 57.04 82.093 44.5666C91.5323 34.99 104.068 29.5984 111.644 18.0922C118.703 7.36652 123.622 -4.82919 129.453 -16.2971C135.623 -28.421 144.79 -48.6849 159.022 -51.984C174.359 -55.5369 186.174 -35.0958 192.717 -23.7667C200.982 -9.44984 207.261 5.95398 214.651 20.7641C220.218 31.8027 227.32 41.8983 235.719 50.7147C244.528 60.0087 256.475 68.9101 260.931 81.6899C264.871 93.0094 257.499 106.704 256.198 118.181C254.806 130.444 257.246 143.324 249.529 153.854C233.616 175.569 193.678 171.542 170.846 172.006C148.318 172.485 130.205 159.198 111.975 146.557C99.9333 138.211 87.3929 131.143 75.0475 123.367C62.4618 115.433 58.0913 107.077 60.1496 91.549Z" stroke="#D0D5DD"></path><path fill-rule="evenodd" clip-rule="evenodd" d="M74.3365 81.4498C81.2546 55.8876 102.862 42.3014 118.309 22.9837C130.947 7.16906 140.424 -25.5815 161.709 -29.9138C185.875 -34.8307 200.342 8.56363 208.744 25.3079C218.066 43.8781 234.67 58.9835 241.574 78.6415C245.204 88.9593 242.087 98.587 240.155 108.9C238.036 120.224 236.444 131.803 229.131 140.917C214.737 158.855 186.624 158.73 166.377 159.224C145.419 159.737 126.878 147.445 110.179 135.176C92.4688 122.184 67.2504 107.664 74.3365 81.4498Z" stroke="#D0D5DD"></path><path fill-rule="evenodd" clip-rule="evenodd" d="M85.9237 74.5183C93.7191 56.306 110.101 41.4999 123.393 27.5228C134.488 15.8704 146.423 -7.5869 163.339 -9.25901C183.221 -11.2313 195.271 13.8171 203.093 29.1758C210.793 44.2678 221.888 60.2029 226.151 76.7668C230.597 94.0215 218.758 117.26 207.466 129.469C194.873 143.085 174.269 148.115 156.59 147.572C138.079 147.019 121.095 135.767 107.076 124.096C92.0878 111.619 76.8579 95.6603 85.9237 74.5183Z" stroke="#D0D5DD"></path><path fill-rule="evenodd" clip-rule="evenodd" d="M96.6754 71.0895C104.122 55.9418 117.029 43.1278 128.931 31.6978C138.115 22.8736 151.667 7.86902 164.918 7.50155C179.495 7.09589 191.849 19.6904 197.644 32.5998C203.357 45.3327 209.376 61.2965 210.232 75.2654C212.089 105.685 174.281 139.76 145.891 136.987C118.973 134.358 81.8285 101.27 96.6754 71.0895Z" stroke="#D0D5DD"></path><path fill-rule="evenodd" clip-rule="evenodd" d="M106.619 69.4193C116.891 49.683 141.844 21.5463 164.944 20.8781C191.46 20.1144 198.117 51.4252 194.66 74.1159C191.149 97.2744 160.578 130.795 136.202 126.265C112.411 121.846 94.4444 92.826 106.619 69.4193Z" stroke="#D0D5DD"></path><path fill-rule="evenodd" clip-rule="evenodd" d="M117.118 66.2281C125.815 49.7032 144.375 29.0626 163.732 28.4379C186.797 27.6987 186.362 54.1337 181.132 70.587C175.693 87.6698 151.74 116.847 131.544 112.24C111.905 107.743 108.783 82.0662 117.118 66.2281Z" stroke="#D0D5DD"></path><path fill-rule="evenodd" clip-rule="evenodd" d="M126.262 64.3262C132.003 52.535 146.371 37.6321 160.03 37.1553C176.725 36.5821 173.48 57.5491 169.166 67.669C164.039 79.7107 146.853 100.634 132.43 97.2434C118.23 93.9054 121.525 74.0414 126.262 64.3262Z" stroke="#D0D5DD"></path></svg>