<?xml version="1.0" encoding="UTF-8"?>
<svg xmlns="http://www.w3.org/2000/svg" width="142" height="32" viewBox="0 0 142 32" fill="none">
  <rect width="32" height="32" rx="8" fill="#09C269"></rect>
  <path d="M24 6H8C6.9 6 6 6.9 6 8V26L10 22H24C25.1 22 26 21.1 26 20V8C26 6.9 25.1 6 24 6Z" fill="white"></path>
  <path d="M24 16L22 13.2636L20 16V6H24V16Z" fill="#09C269"></path>
  <path d="M43.8017 23.724C43.3177 23.724 42.9437 23.5993 42.6797 23.35C42.4303 23.086 42.3057 22.712 42.3057 22.228V9.71C42.3057 9.226 42.4303 8.85933 42.6797 8.61C42.9437 8.346 43.3177 8.214 43.8017 8.214H49.0817C50.167 8.214 51.091 8.37533 51.8537 8.698C52.6163 9.02067 53.1957 9.48267 53.5917 10.084C54.0023 10.6853 54.2077 11.404 54.2077 12.24C54.2077 13.1787 53.9363 13.9707 53.3937 14.616C52.851 15.2613 52.1103 15.694 51.1717 15.914V15.584C52.257 15.7453 53.1003 16.156 53.7017 16.816C54.303 17.476 54.6037 18.334 54.6037 19.39C54.6037 20.7687 54.1343 21.8393 53.1957 22.602C52.2717 23.35 50.981 23.724 49.3237 23.724H43.8017ZM45.0117 21.59H48.9717C49.969 21.59 50.7023 21.3993 51.1717 21.018C51.641 20.622 51.8757 20.0353 51.8757 19.258C51.8757 18.466 51.641 17.8793 51.1717 17.498C50.7023 17.1167 49.969 16.926 48.9717 16.926H45.0117V21.59ZM45.0117 14.792H48.5977C49.5657 14.792 50.2843 14.6087 50.7537 14.242C51.2377 13.8607 51.4797 13.3033 51.4797 12.57C51.4797 11.8367 51.2377 11.2867 50.7537 10.92C50.2843 10.5387 49.5657 10.348 48.5977 10.348H45.0117V14.792Z" fill="#101828"></path>
  <path d="M61.8741 23.944C60.7595 23.944 59.7915 23.7167 58.9701 23.262C58.1488 22.8073 57.5108 22.162 57.0561 21.326C56.6015 20.4753 56.3741 19.478 56.3741 18.334C56.3741 17.4687 56.4988 16.6987 56.7481 16.024C57.0121 15.3347 57.3861 14.748 57.8701 14.264C58.3541 13.7653 58.9335 13.3913 59.6081 13.142C60.2828 12.878 61.0381 12.746 61.8741 12.746C62.9888 12.746 63.9568 12.9733 64.7781 13.428C65.5995 13.8827 66.2375 14.528 66.6921 15.364C67.1468 16.2 67.3741 17.19 67.3741 18.334C67.3741 19.1993 67.2421 19.9767 66.9781 20.666C66.7288 21.3553 66.3621 21.9493 65.8781 22.448C65.3941 22.932 64.8148 23.306 64.1401 23.57C63.4655 23.8193 62.7101 23.944 61.8741 23.944ZM61.8741 21.854C62.4168 21.854 62.8935 21.722 63.3041 21.458C63.7148 21.194 64.0301 20.8053 64.2501 20.292C64.4848 19.764 64.6021 19.1113 64.6021 18.334C64.6021 17.1607 64.3528 16.288 63.8541 15.716C63.3555 15.1293 62.6955 14.836 61.8741 14.836C61.3315 14.836 60.8548 14.968 60.4441 15.232C60.0335 15.4813 59.7108 15.87 59.4761 16.398C59.2561 16.9113 59.1461 17.5567 59.1461 18.334C59.1461 19.4927 59.3955 20.3727 59.8941 20.974C60.3928 21.5607 61.0528 21.854 61.8741 21.854Z" fill="#101828"></path>
  <path d="M74.3299 23.944C73.2153 23.944 72.2473 23.7167 71.4259 23.262C70.6046 22.8073 69.9666 22.162 69.5119 21.326C69.0573 20.4753 68.8299 19.478 68.8299 18.334C68.8299 17.4687 68.9546 16.6987 69.2039 16.024C69.4679 15.3347 69.8419 14.748 70.3259 14.264C70.8099 13.7653 71.3893 13.3913 72.0639 13.142C72.7386 12.878 73.4939 12.746 74.3299 12.746C75.4446 12.746 76.4126 12.9733 77.2339 13.428C78.0553 13.8827 78.6933 14.528 79.1479 15.364C79.6026 16.2 79.8299 17.19 79.8299 18.334C79.8299 19.1993 79.6979 19.9767 79.4339 20.666C79.1846 21.3553 78.8179 21.9493 78.3339 22.448C77.8499 22.932 77.2706 23.306 76.5959 23.57C75.9213 23.8193 75.1659 23.944 74.3299 23.944ZM74.3299 21.854C74.8726 21.854 75.3493 21.722 75.7599 21.458C76.1706 21.194 76.4859 20.8053 76.7059 20.292C76.9406 19.764 77.0579 19.1113 77.0579 18.334C77.0579 17.1607 76.8086 16.288 76.3099 15.716C75.8113 15.1293 75.1513 14.836 74.3299 14.836C73.7873 14.836 73.3106 14.968 72.8999 15.232C72.4893 15.4813 72.1666 15.87 71.9319 16.398C71.7119 16.9113 71.6019 17.5567 71.6019 18.334C71.6019 19.4927 71.8513 20.3727 72.3499 20.974C72.8486 21.5607 73.5086 21.854 74.3299 21.854Z" fill="#101828"></path>
  <path d="M83.2437 23.9C82.8037 23.9 82.4664 23.7827 82.2317 23.548C81.997 23.2987 81.8797 22.9467 81.8797 22.492V9.424C81.8797 8.96933 81.997 8.62467 82.2317 8.39C82.4664 8.15533 82.8037 8.038 83.2437 8.038C83.6837 8.038 84.021 8.15533 84.2557 8.39C84.505 8.62467 84.6297 8.96933 84.6297 9.424V17.542H84.6737L88.3037 13.714C88.597 13.4207 88.8537 13.1933 89.0737 13.032C89.2937 12.8707 89.5944 12.79 89.9757 12.79C90.357 12.79 90.643 12.8927 90.8337 13.098C91.039 13.2887 91.1417 13.5233 91.1417 13.802C91.1417 14.0807 91.0097 14.3593 90.7457 14.638L86.9177 18.686V17.542L91.1197 22.074C91.3837 22.3527 91.501 22.6387 91.4717 22.932C91.457 23.2107 91.3397 23.4453 91.1197 23.636C90.8997 23.812 90.621 23.9 90.2837 23.9C89.873 23.9 89.543 23.8193 89.2937 23.658C89.059 23.4967 88.795 23.2547 88.5017 22.932L84.6737 18.928H84.6297V22.492C84.6297 23.4307 84.1677 23.9 83.2437 23.9Z" fill="#101828"></path>
  <path d="M97.3486 23.944C96.454 23.944 95.7133 23.7827 95.1266 23.46C94.54 23.1227 94.1 22.624 93.8066 21.964C93.528 21.304 93.3886 20.4827 93.3886 19.5V14.176C93.3886 13.7067 93.506 13.362 93.7406 13.142C93.9753 12.9073 94.3126 12.79 94.7526 12.79C95.1926 12.79 95.53 12.9073 95.7646 13.142C96.014 13.362 96.1386 13.7067 96.1386 14.176V19.544C96.1386 20.3067 96.2926 20.8713 96.6006 21.238C96.9086 21.6047 97.4 21.788 98.0746 21.788C98.808 21.788 99.4093 21.5387 99.8786 21.04C100.348 20.5267 100.583 19.852 100.583 19.016V14.176C100.583 13.7067 100.7 13.362 100.935 13.142C101.169 12.9073 101.507 12.79 101.947 12.79C102.387 12.79 102.724 12.9073 102.959 13.142C103.208 13.362 103.333 13.7067 103.333 14.176V22.492C103.333 23.4307 102.885 23.9 101.991 23.9C101.565 23.9 101.235 23.7827 101.001 23.548C100.766 23.2987 100.649 22.9467 100.649 22.492V20.82L100.957 21.48C100.649 22.272 100.179 22.8807 99.5486 23.306C98.9326 23.7313 98.1993 23.944 97.3486 23.944Z" fill="#101828"></path>
  <path d="M107.669 23.724C107.214 23.724 106.862 23.5993 106.613 23.35C106.364 23.086 106.239 22.7267 106.239 22.272V9.578C106.239 9.10867 106.356 8.75667 106.591 8.522C106.84 8.27267 107.192 8.148 107.647 8.148C108.102 8.148 108.446 8.27267 108.681 8.522C108.93 8.75667 109.055 9.10867 109.055 9.578V21.326H115.435C115.831 21.326 116.132 21.4287 116.337 21.634C116.557 21.8393 116.667 22.1327 116.667 22.514C116.667 22.8953 116.557 23.196 116.337 23.416C116.132 23.6213 115.831 23.724 115.435 23.724H107.669Z" fill="#101828"></path>
  <path d="M119.472 23.878C119.032 23.878 118.695 23.746 118.46 23.482C118.226 23.218 118.108 22.8513 118.108 22.382V14.308C118.108 13.824 118.226 13.4573 118.46 13.208C118.695 12.944 119.032 12.812 119.472 12.812C119.912 12.812 120.25 12.944 120.484 13.208C120.734 13.4573 120.858 13.824 120.858 14.308V22.382C120.858 22.8513 120.741 23.218 120.506 23.482C120.272 23.746 119.927 23.878 119.472 23.878ZM119.472 10.766C118.959 10.766 118.556 10.6413 118.262 10.392C117.984 10.128 117.844 9.76867 117.844 9.314C117.844 8.84467 117.984 8.48533 118.262 8.236C118.556 7.98667 118.959 7.862 119.472 7.862C120 7.862 120.404 7.98667 120.682 8.236C120.961 8.48533 121.1 8.84467 121.1 9.314C121.1 9.76867 120.961 10.128 120.682 10.392C120.404 10.6413 120 10.766 119.472 10.766Z" fill="#101828"></path>
  <path d="M128.424 23.944C127.47 23.944 126.671 23.7827 126.026 23.46C125.395 23.1373 124.926 22.668 124.618 22.052C124.31 21.4213 124.156 20.644 124.156 19.72V15.034H123.012C122.66 15.034 122.388 14.946 122.198 14.77C122.007 14.5793 121.912 14.3227 121.912 14C121.912 13.6627 122.007 13.406 122.198 13.23C122.388 13.054 122.66 12.966 123.012 12.966H124.156V10.964C124.156 10.5093 124.273 10.1647 124.508 9.93C124.757 9.69533 125.102 9.578 125.542 9.578C125.982 9.578 126.319 9.69533 126.554 9.93C126.788 10.1647 126.906 10.5093 126.906 10.964V12.966H129.238C129.59 12.966 129.861 13.054 130.052 13.23C130.242 13.406 130.338 13.6627 130.338 14C130.338 14.3227 130.242 14.5793 130.052 14.77C129.861 14.946 129.59 15.034 129.238 15.034H126.906V19.566C126.906 20.27 127.06 20.798 127.368 21.15C127.676 21.502 128.174 21.678 128.864 21.678C129.113 21.678 129.333 21.656 129.524 21.612C129.714 21.568 129.883 21.5387 130.03 21.524C130.206 21.5093 130.352 21.568 130.47 21.7C130.587 21.8173 130.646 22.0667 130.646 22.448C130.646 22.7413 130.594 23.0053 130.492 23.24C130.404 23.46 130.235 23.614 129.986 23.702C129.795 23.7607 129.546 23.812 129.238 23.856C128.93 23.9147 128.658 23.944 128.424 23.944Z" fill="#101828"></path>
  <path d="M136.914 23.944C135.696 23.944 134.648 23.7167 133.768 23.262C132.888 22.8073 132.206 22.162 131.722 21.326C131.252 20.49 131.018 19.5 131.018 18.356C131.018 17.2413 131.245 16.266 131.7 15.43C132.169 14.594 132.807 13.9413 133.614 13.472C134.435 12.988 135.366 12.746 136.408 12.746C137.17 12.746 137.852 12.8707 138.454 13.12C139.07 13.3693 139.59 13.7287 140.016 14.198C140.456 14.6673 140.786 15.2393 141.006 15.914C141.24 16.574 141.358 17.322 141.358 18.158C141.358 18.422 141.262 18.6273 141.072 18.774C140.896 18.906 140.639 18.972 140.302 18.972H133.24V17.388H139.422L139.07 17.718C139.07 17.0433 138.967 16.4787 138.762 16.024C138.571 15.5693 138.285 15.2247 137.904 14.99C137.537 14.7407 137.075 14.616 136.518 14.616C135.902 14.616 135.374 14.7627 134.934 15.056C134.508 15.3347 134.178 15.738 133.944 16.266C133.724 16.7793 133.614 17.3953 133.614 18.114V18.268C133.614 19.4707 133.892 20.3727 134.45 20.974C135.022 21.5607 135.858 21.854 136.958 21.854C137.339 21.854 137.764 21.81 138.234 21.722C138.718 21.6193 139.172 21.4507 139.598 21.216C139.906 21.04 140.177 20.9667 140.412 20.996C140.646 21.0107 140.83 21.0913 140.962 21.238C141.108 21.3847 141.196 21.568 141.226 21.788C141.255 21.9933 141.211 22.206 141.094 22.426C140.991 22.646 140.808 22.8367 140.544 22.998C140.03 23.3207 139.436 23.5627 138.762 23.724C138.102 23.8707 137.486 23.944 136.914 23.944Z" fill="#101828"></path>
</svg>
